<?xml version="1.0" encoding="UTF-8" standalone="no"?>
<svg
   width="128"
   height="128"
   viewBox="0 0 16384 16384"
   version="1.1"
   xml:space="preserve"
   style="clip-rule:evenodd;fill-rule:evenodd;stroke-linecap:round;stroke-linejoin:round;stroke-miterlimit:1.5"
   id="svg94"
   sodipodi:docname="com.github.sixpounder.rustnum.svg"
   inkscape:version="1.2 (dc2aedaf03, 2022-05-15)"
   xmlns:inkscape="http://www.inkscape.org/namespaces/inkscape"
   xmlns:sodipodi="http://sodipodi.sourceforge.net/DTD/sodipodi-0.dtd"
   xmlns="http://www.w3.org/2000/svg"
   xmlns:svg="http://www.w3.org/2000/svg"
   xmlns:rdf="http://www.w3.org/1999/02/22-rdf-syntax-ns#"
   xmlns:cc="http://creativecommons.org/ns#"
   xmlns:dc="http://purl.org/dc/elements/1.1/"
   xmlns:serif="http://www.serif.com/"><metadata
   id="metadata98"><rdf:RDF><cc:Work
       rdf:about=""><dc:format>image/svg+xml</dc:format><dc:type
         rdf:resource="http://purl.org/dc/dcmitype/StillImage" /></cc:Work></rdf:RDF></metadata><sodipodi:namedview
   pagecolor="#ffffff"
   bordercolor="#666666"
   borderopacity="1"
   objecttolerance="10"
   gridtolerance="10"
   guidetolerance="10"
   inkscape:pageopacity="0"
   inkscape:pageshadow="2"
   inkscape:window-width="3840"
   inkscape:window-height="2083"
   id="namedview96"
   showgrid="false"
   units="px"
   inkscape:zoom="5.2149125"
   inkscape:cx="46.309502"
   inkscape:cy="64.718248"
   inkscape:window-x="0"
   inkscape:window-y="0"
   inkscape:window-maximized="1"
   inkscape:current-layer="exports"
   inkscape:pagecheckerboard="0"
   inkscape:showpageshadow="2"
   inkscape:deskcolor="#d1d1d1" />
    <g
   transform="matrix(3.1860386,0,0,3.1860386,3790.6164,8093.4827)"
   id="g59">
        <g
   id="exports"
   transform="translate(0,865)"
   style="display:inline">
            <rect
   x="0"
   y="0"
   width="1280"
   height="800"
   style="fill:none"
   id="rect2" />
            <g
   id="base"
   transform="matrix(37.356757,0,0,33.492275,-22891.775,-12790.376)"
   style="display:inline">
                <g
   id="g40">
                    <g
   id="drop-shadow"
   serif:id="drop shadow"
   transform="matrix(1.10599,0,0,1.14286,437.65,145.868)"
   style="display:none">
                        <g
   id="left"
   transform="matrix(-1.25,0,0,1.125,424,-30.375)">
                            <rect
   x="136"
   y="243"
   width="24"
   height="8"
   style="fill:url(#_Radial1)"
   id="rect4" />
                        </g>
                        <g
   id="left1"
   serif:id="left"
   transform="matrix(1.25,0,0,1.125,-40,-30.375)">
                            <rect
   x="136"
   y="243"
   width="24"
   height="8"
   style="fill:url(#_Radial2)"
   id="rect7" />
                        </g>
                        <g
   id="center"
   transform="matrix(1,0,0,0.75,0,63)">
                            <rect
   x="160"
   y="240"
   width="64"
   height="12"
   style="fill:url(#_Linear3)"
   id="rect10" />
                        </g>
                    </g>
                    <g
   id="background"
   transform="matrix(0.259714,0,0,0.285538,482.115,257.446)"
   style="display:inline">
                        <g
   transform="matrix(0.985701,0,0,1,9.2945,-100)"
   id="g16"
   style="display:inline;fill:#791d58;fill-opacity:1">
                            <path
   d="M 900,254.154 C 900,224.266 875.734,200 845.846,200 H 454.154 C 424.266,200 400,224.266 400,254.154 V 645.846 C 400,675.734 424.266,700 454.154,700 H 845.846 C 875.734,700 900,675.734 900,645.846 Z"
   style="fill:#791d58;fill-opacity:1"
   id="path14"
   inkscape:connector-curvature="0" />
                        </g>
                        <g
   id="border"
   transform="matrix(0.9769,0,0,0.991071,15.0151,-95.9821)"
   style="stroke:#791d58;stroke-opacity:1">
                            <path
   d="M 900,254.154 C 900.368,223.844 876.152,199.522 845.846,200 H 454.154 c -30.783,-0.227 -55.03,24.043 -54.154,54.154 v 391.692 c -1.324,30.466 22.891,54.753 54.154,54.154 h 391.692 c 30.472,0 54.887,-24.266 54.154,-54.154 z"
   style="fill:none;stroke:#791d58;stroke-width:4.5px;stroke-opacity:1"
   id="path18"
   inkscape:connector-curvature="0" />
                        </g>
                        <g
   id="outer-stroke"
   serif:id="outer stroke"
   transform="matrix(0.985701,0,0,1,9.2945,-100)"
   style="stroke:#631847;stroke-opacity:1">
                            <path
   d="M 900,254.154 C 900,224.266 875.734,200 845.846,200 H 454.154 C 424.266,200 400,224.266 400,254.154 V 645.846 C 400,675.734 424.266,700 454.154,700 H 845.846 C 875.734,700 900,675.734 900,645.846 Z"
   style="fill:none;stroke:#631847;stroke-width:4.46px;stroke-opacity:1"
   id="path21"
   inkscape:connector-curvature="0" />
                        </g>
                    </g>
                    
                </g>
            </g><g
   inkscape:groupmode="layer"
   id="layer1"
   inkscape:label="Mask"
   style="clip-rule:evenodd;display:inline;fill-rule:evenodd;stroke-linecap:round;stroke-linejoin:round;stroke-miterlimit:1.5"
   transform="matrix(0.19857105,0,0,0.21845044,-114.15876,-2298.3056)" />
            <g
   id="base1"
   serif:id="base"
   transform="matrix(0.466667,0,0,0.418391,15.224,170.407)"
   style="display:inline">
                <g
   id="drop-shadow1"
   serif:id="drop shadow">
                </g>
                <g
   id="background1"
   serif:id="background">
                </g>
            </g>
            <g
   id="base2"
   serif:id="base"
   transform="matrix(0.35,0,0,0.313793,221.192,208.055)"
   style="display:inline">
                <g
   id="drop-shadow2"
   serif:id="drop shadow"
   style="display:inline">
                </g>
                <g
   id="background2"
   serif:id="background">
                </g>
            </g>
            <g
   id="base3"
   serif:id="base"
   transform="matrix(0.175,0,0,0.156897,461.062,264.528)"
   style="display:inline">
                <g
   id="drop-shadow3"
   serif:id="drop shadow">
                </g>
                <g
   id="background3"
   serif:id="background">
                </g>
            </g>
            <g
   id="base4"
   serif:id="base"
   transform="matrix(0.116667,0,0,0.104598,633.067,283.601)"
   style="display:inline">
                <g
   id="drop-shadow4"
   serif:id="drop shadow">
                </g>
                <g
   id="background4"
   serif:id="background">
                </g>
            </g>
            <g
   id="inverted"
   transform="matrix(0.875,0,0,0.875,-376.75,141.75)"
   style="display:inline">
                <g
   id="drop-shadow5"
   serif:id="drop shadow">
                </g>
                <g
   id="background5"
   serif:id="background">
                </g>
            </g>
        <g
   aria-label="N!"
   id="text1251"
   style="font-weight:bold;font-size:2507.55px;font-family:'Fira Code';-inkscape-font-specification:'Fira Code Bold';text-align:center;text-anchor:middle;fill:#791d58;stroke:#631847;stroke-width:995.497"><path
     d="m -25.959832,98.271198 q -42.628351,0 -80.241598,-10.030201 -102.80956,-35.1057 -127.88506,-140.422802 -2.50755,-7.522651 -2.50755,-22.567951 0,-35.105704 15.0453,-35.105704 12.53775,0 30.0906,45.135904 17.55285,70.2114017 85.25671,85.256702 15.045296,5.0151 37.613247,7.52265 22.56795,2.50755 42.628351,2.50755 92.779351,0 178.036052,-52.658551 82.74915,-52.658551 152.96055,-135.407705 72.71896,-80.2416 130.39261,-165.4983 57.67365,-87.76425 95.2869,-157.97565 110.3322,-210.63421 185.5587,-426.28351 75.2265,-218.15683 145.4379,-453.86653 -72.71895,65.1963 -160.4832,97.7944 -87.76425,32.5982 -165.4983,40.1208 h -2.50755 q -25.0755,0 -25.0755,-17.5528 0,-20.0604 30.0906,-25.0755 72.71895,-12.5378 150.453,-60.1812 77.73405,-50.151 142.93035,-125.3775 67.70386,-75.2265 102.80956,-162.9908 5.0151,-15.0453 35.1057,-22.5679 30.0906,-10.0302 60.18116,-10.0302 27.5831,0 47.6435,7.5226 22.5679,7.5227 17.5528,25.0755 -10.0302,27.5831 -17.5528,85.2567 -5.0151,57.6737 -10.0302,92.7794 -7.5227,45.1359 -7.5227,130.3926 0,107.8246 12.5378,253.2625 12.5377,145.43793 40.1208,298.39848 30.0906,152.96055 75.2265,285.86071 45.1359,132.90015 107.8246,215.6493 65.1963,80.2416 150.453,80.2416 87.7643,0 165.4983,-85.2567 77.7341,-85.2567 140.4229,-223.17195 62.6887,-137.91526 107.8246,-298.39846 45.1359,-162.99075 67.7039,-315.95128 25.0755,-155.4681 25.0755,-270.8154 0,-62.6888 -7.5227,-107.8247 -10.0302,-67.7038 -30.0906,-115.3473 -17.5528,-50.151 -37.6132,-102.8095 v -2.5076 q 0,-10.0302 20.0604,-25.0755 20.0604,-17.5528 30.0906,-20.0604 37.6132,0 67.7038,35.1057 32.5982,35.1057 60.1812,87.7643 27.5831,50.151 55.1661,100.302 27.5831,50.151 60.1812,80.2416 20.0604,17.5528 30.0906,22.5679 12.5378,5.0151 37.6133,5.0151 l 15.0453,-7.5226 q 20.0604,0 27.583,5.0151 7.5227,2.5075 10.0302,22.5679 0,20.0604 -20.0604,32.5982 -17.5528,12.5377 -37.6132,17.5528 -32.5982,0 -82.7492,-32.5981 -50.151,-35.1057 -75.2265,-55.1661 2.5076,15.0453 2.5076,30.0906 0,15.0453 0,30.0906 0,137.9152 -35.1057,308.4286 -35.1057,168.00588 -97.7945,338.51928 -60.1812,170.5134 -142.9303,313.44376 -80.2416,142.93035 -175.5286,230.6946 -95.2869,87.764254 -198.0964,87.764254 -120.3624,0 -205.6191,-72.718954 -82.7492,-72.71895 -140.4228,-195.5889 -55.1661,-122.86995 -87.76426,-270.81541 -32.59815,-147.94545 -45.1359,-300.906 -12.53775,-155.46813 -12.53775,-288.36823 -77.73406,203.1115 -155.46811,383.65513 -75.2265,180.5436 -175.5285,363.59476 -45.1359,82.74915 -110.3322,180.5436 -62.68875,95.2869 -142.93036,183.05115 -80.2416,90.271805 -175.5285,145.437906 -95.2869,57.673652 -203.111552,57.673652 z"
     style="font-family:Allura;-inkscape-font-specification:'Allura Bold';fill:#efb8dc;stroke:none"
     id="path342" /><path
     d="m 2559.3253,-583.78242 q -30.0906,0 -30.0906,-27.58305 0,-5.0151 0,-10.0302 2.5076,-5.0151 5.0151,-12.53775 42.6284,-115.3473 92.7794,-248.24745 52.6585,-132.90013 107.8246,-265.80033 55.1661,-132.9001 102.8096,-245.7399 45.1359,-107.8246 77.734,-188.0662 35.1057,-82.7492 52.6586,-102.8096 7.5226,-7.5226 20.0604,-7.5226 27.583,0 62.6887,30.0906 35.1057,30.0906 35.1057,60.1812 0,25.0755 -15.0453,70.2114 -12.5377,42.6283 -42.6283,95.2869 -12.5378,22.5679 -30.0906,32.5981 -15.0453,7.5227 -27.5831,32.5982 -92.7793,180.5436 -190.5738,371.1174 -95.2869,188.06623 -160.4832,381.14758 -2.5075,12.53775 -22.5679,25.0755 -20.0604,10.0302 -37.6133,10.0302 z m -80.2416,358.57966 q -25.0755,0 -55.1661,-5.0151 -27.583,-5.0151 -27.583,-35.1057 0,-12.53775 27.583,-37.61325 27.5831,-27.58305 60.1812,-50.151 32.5982,-25.0755 47.6435,-25.0755 17.5528,0 15.0453,17.55285 0,17.55285 0,37.61325 0,10.0302 -12.5378,35.1057 -12.5377,22.56795 -27.583,42.62835 -15.0453,20.0604 -27.5831,20.0604 z"
     style="font-family:Allura;-inkscape-font-specification:'Allura Bold';fill:#efb8dc;stroke:none"
     id="path344" /></g></g>
    </g>
    <defs
   id="defs92">
        <radialGradient
   id="_Radial1"
   cx="0"
   cy="0"
   r="1"
   gradientUnits="userSpaceOnUse"
   gradientTransform="matrix(-24,0,0,-3.84,160,247.16)"><stop
     offset="0"
     style="stop-color:rgb(224,224,224);stop-opacity:0.6"
     id="stop61" /><stop
     offset="1"
     style="stop-color:rgb(179,179,179);stop-opacity:0"
     id="stop63" /></radialGradient>
        <radialGradient
   id="_Radial2"
   cx="0"
   cy="0"
   r="1"
   gradientUnits="userSpaceOnUse"
   gradientTransform="matrix(-24,0,0,-3.84,160,247.16)"><stop
     offset="0"
     style="stop-color:rgb(224,224,224);stop-opacity:0.6"
     id="stop66" /><stop
     offset="1"
     style="stop-color:rgb(179,179,179);stop-opacity:0"
     id="stop68" /></radialGradient>
        <linearGradient
   id="_Linear3"
   x1="0"
   y1="0"
   x2="1"
   y2="0"
   gradientUnits="userSpaceOnUse"
   gradientTransform="matrix(0,12,-9,0,192,240)"><stop
     offset="0"
     style="stop-color:white;stop-opacity:0"
     id="stop71" /><stop
     offset="0.5"
     style="stop-color:rgb(224,224,224);stop-opacity:0.6"
     id="stop73" /><stop
     offset="1"
     style="stop-color:rgb(179,179,179);stop-opacity:0"
     id="stop75" /></linearGradient>
        <linearGradient
   id="_Linear4"
   x1="0"
   y1="0"
   x2="1"
   y2="0"
   gradientUnits="userSpaceOnUse"
   gradientTransform="matrix(0,500,-500,0,645.756,200)"><stop
     offset="0"
     style="stop-color:rgb(240,242,235);stop-opacity:1"
     id="stop78" /><stop
     offset="0.64"
     style="stop-color:rgb(236,239,230);stop-opacity:1"
     id="stop80" /><stop
     offset="0.84"
     style="stop-color:rgb(227,231,217);stop-opacity:1"
     id="stop82" /><stop
     offset="1"
     style="stop-color:rgb(216,221,203);stop-opacity:1"
     id="stop84" /></linearGradient>
        <linearGradient
   id="_Linear5"
   x1="0"
   y1="0"
   x2="1"
   y2="0"
   gradientUnits="userSpaceOnUse"
   gradientTransform="matrix(0,495.536,-495.536,0,658.929,200)"><stop
     offset="0"
     style="stop-color:rgb(169,170,168);stop-opacity:0.6"
     id="stop87" /><stop
     offset="1"
     style="stop-color:rgb(151,151,151);stop-opacity:0.6"
     id="stop89" /></linearGradient>
    </defs>
</svg>
