<?xml version="1.0" encoding="UTF-8" standalone="no"?>
<svg
   height="128"
   width="128"
   viewBox="0 0 128 128"
   version="1.1"
   id="svg29"
   sodipodi:docname="com.github.sixpounder.GameOfLife.svg"
   inkscape:version="1.2.1 (9c6d41e410, 2022-07-14)"
   xmlns:inkscape="http://www.inkscape.org/namespaces/inkscape"
   xmlns:sodipodi="http://sodipodi.sourceforge.net/DTD/sodipodi-0.dtd"
   xmlns="http://www.w3.org/2000/svg"
   xmlns:svg="http://www.w3.org/2000/svg">
  <defs
     id="defs33" />
  <sodipodi:namedview
     id="namedview31"
     pagecolor="#ffffff"
     bordercolor="#000000"
     borderopacity="0.25"
     inkscape:showpageshadow="2"
     inkscape:pageopacity="0.0"
     inkscape:pagecheckerboard="0"
     inkscape:deskcolor="#d1d1d1"
     showgrid="false"
     inkscape:zoom="8.0234375"
     inkscape:cx="57.269718"
     inkscape:cy="64"
     inkscape:window-width="3840"
     inkscape:window-height="2083"
     inkscape:window-x="0"
     inkscape:window-y="40"
     inkscape:window-maximized="1"
     inkscape:current-layer="svg29" />
  <linearGradient
     id="a"
     gradientTransform="matrix(0.26922065,0,0,0.38153382,-19.492691,296.43674)"
     gradientUnits="userSpaceOnUse"
     x1="88.595886"
     x2="536.595886"
     y1="-449.394012"
     y2="-449.394012">
    <stop
       offset="0"
       stop-color="#77767b"
       id="stop2" />
    <stop
       offset="0.0384615"
       stop-color="#c0bfbc"
       id="stop4" />
    <stop
       offset="0.0768555"
       stop-color="#9a9996"
       id="stop6" />
    <stop
       offset="0.923077"
       stop-color="#9a9996"
       id="stop8" />
    <stop
       offset="0.961538"
       stop-color="#c0bfbc"
       id="stop10" />
    <stop
       offset="1"
       stop-color="#77767b"
       id="stop12" />
  </linearGradient>
  <path
     d="M 13.636915,8.991156 H 115.69219 c 5.1236,0 9.27775,4.154669 9.27775,9.278913 v 97.428591 c 0,5.12424 -4.15415,9.27891 -9.27775,9.27891 H 13.636915 c -5.1236025,0 -9.277752,-4.15467 -9.277752,-9.27891 V 18.270069 c 0,-5.124244 4.1541495,-9.278913 9.277752,-9.278913 z m 0,0"
     fill="url(#a)"
     id="path15"
     style="fill:url(#a);stroke-width:1.15979" />
  <path
     d="M 13.636915,4.3516995 H 115.69219 c 5.1236,0 9.27775,4.1546693 9.27775,9.2789125 V 111.0592 c 0,5.12425 -4.15415,9.27891 -9.27775,9.27891 H 13.636915 c -5.1236025,0 -9.277752,-4.15466 -9.277752,-9.27891 V 13.630612 c 0,-5.1242432 4.1541495,-9.2789125 9.277752,-9.2789125 z m 0,0"
     fill="#deddda"
     id="path17"
     style="stroke-width:1.15979" />
  <g
     stroke-linecap="round"
     stroke-linejoin="round"
     id="g27"
     transform="matrix(1.159719,0,0,1.1598641,-9.5574656,-9.5666701)">
    <path
       d="M 24.722656,23.898438 H 61.945312 V 61.074219 H 24.722656 Z m 0,0"
       fill="#613583"
       stroke="#613583"
       stroke-width="1.263"
       id="path19" />
    <path
       d="M 66.238281,23.898438 H 103.46094 V 61.074219 H 66.238281 Z m 0,0"
       fill="#c061cb"
       stroke="#c061cb"
       stroke-width="1.263"
       id="path21" />
    <path
       d="M 66.238281,65.453125 H 103.46094 V 102.63281 H 66.238281 Z m 0,0"
       fill="#613583"
       stroke="#613583"
       stroke-width="1.26278"
       id="path23" />
    <path
       d="M 24.722656,65.453125 H 61.945312 V 102.63281 H 24.722656 Z m 0,0"
       fill="#613583"
       stroke="#613583"
       stroke-width="1.26278"
       id="path25" />
  </g>
</svg>
