<?xml version="1.0" encoding="UTF-8" standalone="no"?>
<svg
   width="104"
   height="104"
   version="1.1"
   id="svg253"
   sodipodi:docname="com.github.sixpounder.GameOfLife.svg"
   inkscape:version="1.2.2 (b0a8486541, 2022-12-01)"
   xmlns:inkscape="http://www.inkscape.org/namespaces/inkscape"
   xmlns:sodipodi="http://sodipodi.sourceforge.net/DTD/sodipodi-0.dtd"
   xmlns:xlink="http://www.w3.org/1999/xlink"
   xmlns="http://www.w3.org/2000/svg"
   xmlns:svg="http://www.w3.org/2000/svg">
  <defs
     id="defs257" />
  <sodipodi:namedview
     id="namedview255"
     pagecolor="#ffffff"
     bordercolor="#000000"
     borderopacity="0.25"
     inkscape:showpageshadow="2"
     inkscape:pageopacity="0.0"
     inkscape:pagecheckerboard="0"
     inkscape:deskcolor="#d1d1d1"
     showgrid="false"
     inkscape:zoom="8.0234375"
     inkscape:cx="33.339825"
     inkscape:cy="40.070107"
     inkscape:window-width="1698"
     inkscape:window-height="1251"
     inkscape:window-x="356"
     inkscape:window-y="238"
     inkscape:window-maximized="0"
     inkscape:current-layer="svg253" />
  <linearGradient
     id="a"
     gradientTransform="matrix(0.232143,0,0,0.328947,-20.56691,251.82696)"
     gradientUnits="userSpaceOnUse"
     x1="88.595886"
     x2="536.59589"
     y1="-449.39401"
     y2="-449.39401">
    <stop
       offset="0"
       stop-color="#c0bfbc"
       id="stop201" />
    <stop
       offset="0.0384615"
       stop-color="#f6f5f4"
       id="stop203" />
    <stop
       offset="0.0768555"
       stop-color="#c0bfbc"
       id="stop205" />
    <stop
       offset="0.923077"
       stop-color="#c0bfbc"
       id="stop207" />
    <stop
       offset="0.961538"
       stop-color="#f6f5f4"
       id="stop209" />
    <stop
       offset="1"
       stop-color="#c0bfbc"
       id="stop211" />
  </linearGradient>
  <linearGradient
     id="b"
     gradientUnits="userSpaceOnUse"
     x1="79.342155"
     x2="33.187122"
     y1="32.179764"
     y2="84.083069"
     gradientTransform="translate(-12,-12)">
    <stop
       offset="0"
       stop-color="#4677da"
       id="stop214" />
    <stop
       offset="1"
       stop-color="#c061cb"
       id="stop216" />
  </linearGradient>
  <linearGradient
     id="c"
     gradientUnits="userSpaceOnUse">
    <stop
       offset="0"
       stop-opacity="0.34902"
       id="stop219" />
    <stop
       offset="0.125"
       stop-opacity="0.14902"
       id="stop221" />
    <stop
       offset="0.25"
       stop-opacity="0.34902"
       id="stop223" />
    <stop
       offset="0.75"
       stop-opacity="0.34902"
       id="stop225" />
    <stop
       offset="0.875"
       stop-opacity="0.14902"
       id="stop227" />
    <stop
       offset="1"
       stop-opacity="0.34902"
       id="stop229" />
  </linearGradient>
  <linearGradient
     id="d"
     x1="24"
     x2="48"
     xlink:href="#c"
     y1="38"
     y2="38"
     gradientTransform="translate(-12,-12)" />
  <linearGradient
     id="e"
     x1="51.999996"
     x2="76"
     xlink:href="#c"
     y1="65.999992"
     y2="65.999992"
     gradientTransform="translate(-12,-12)" />
  <linearGradient
     id="f"
     x1="80"
     x2="104"
     xlink:href="#c"
     y1="65.999992"
     y2="65.999992"
     gradientTransform="translate(-12,-12)" />
  <linearGradient
     id="g"
     x1="23.999998"
     x2="48"
     xlink:href="#c"
     y1="93.999992"
     y2="93.999992"
     gradientTransform="translate(-12,-12)" />
  <linearGradient
     id="h"
     x1="52.000004"
     x2="76"
     xlink:href="#c"
     y1="93.999992"
     y2="93.999992"
     gradientTransform="translate(-12,-12)" />
  <path
     d="m 8,4 h 88 c 4.41797,0 8,3.582031 8,8 v 84 c 0,4.41797 -3.58203,8 -8,8 H 8 C 3.582031,104 0,100.41797 0,96 V 12 C 0,7.582031 3.582031,4 8,4 Z m 0,0"
     fill="url(#a)"
     id="path237"
     style="fill:url(#a)" />
  <path
     d="m 8,0 h 88 c 4.41797,0 8,3.582031 8,8 v 84 c 0,4.41797 -3.58203,8 -8,8 H 8 C 3.582031,100 0,96.41797 0,92 V 8 C 0,3.582031 3.582031,0 8,0 Z m 0,0"
     fill="#f6f5f4"
     id="path239" />
  <path
     d="m 18,8 c -3.324219,0 -6,2.675781 -6,6 v 12 c 0,3.324219 2.675781,6 6,6 h 12 c 3.324219,0 6,-2.675781 6,-6 V 14 C 36,10.675781 33.324219,8 30,8 Z m 28,28 c -3.324219,0 -6,2.675781 -6,6 v 12 c 0,3.324219 2.675781,6 6,6 h 12 c 3.324219,0 6,-2.675781 6,-6 V 42 c 0,-3.324219 -2.675781,-6 -6,-6 z m 28,0 c -3.324219,0 -6,2.675781 -6,6 v 12 c 0,3.324219 2.675781,6 6,6 h 12 c 3.32422,0 6,-2.675781 6,-6 V 42 c 0,-3.324219 -2.67578,-6 -6,-6 z M 18,64 c -3.324219,0 -6,2.675781 -6,6 v 12 c 0,3.324219 2.675781,6 6,6 h 12 c 3.324219,0 6,-2.675781 6,-6 V 70 c 0,-3.324219 -2.675781,-6 -6,-6 z m 28,0 c -3.324219,0 -6,2.675781 -6,6 v 12 c 0,3.324219 2.675781,6 6,6 h 12 c 3.324219,0 6,-2.675781 6,-6 V 70 c 0,-3.324219 -2.675781,-6 -6,-6 z m 0,0"
     fill="url(#b)"
     id="path241"
     style="fill:url(#b)" />
  <path
     d="m 12,20 v 6 c 0,3.324219 2.675781,6 6,6 h 12 c 3.324219,0 6,-2.675781 6,-6 v -6 c 0,3.324219 -2.675781,6 -6,6 H 18 c -3.324219,0 -6,-2.675781 -6,-6 z m 0,0"
     fill="url(#d)"
     id="path243"
     style="fill:url(#d)" />
  <path
     d="m 40,48 v 6 c 0,3.324219 2.675781,6 6,6 h 12 c 3.324219,0 6,-2.675781 6,-6 v -6 c 0,3.324219 -2.675781,6 -6,6 H 46 c -3.324219,0 -6,-2.675781 -6,-6 z m 0,0"
     fill="url(#e)"
     id="path245"
     style="fill:url(#e)" />
  <path
     d="m 68,48 v 6 c 0,3.324219 2.675781,6 6,6 h 12 c 3.32422,0 6,-2.675781 6,-6 v -6 c 0,3.324219 -2.67578,6 -6,6 H 74 c -3.324219,0 -6,-2.675781 -6,-6 z m 0,0"
     fill="url(#f)"
     id="path247"
     style="fill:url(#f)" />
  <path
     d="m 12,76 v 6 c 0,3.324219 2.675781,6 6,6 h 12 c 3.324219,0 6,-2.675781 6,-6 v -6 c 0,3.324219 -2.675781,6 -6,6 H 18 c -3.324219,0 -6,-2.675781 -6,-6 z m 0,0"
     fill="url(#g)"
     id="path249"
     style="fill:url(#g)" />
  <path
     d="m 40,76 v 6 c 0,3.324219 2.675781,6 6,6 h 12 c 3.324219,0 6,-2.675781 6,-6 v -6 c 0,3.324219 -2.675781,6 -6,6 H 46 c -3.324219,0 -6,-2.675781 -6,-6 z m 0,0"
     fill="url(#h)"
     id="path251"
     style="fill:url(#h)" />
</svg>
